<svg xmlns="http://www.w3.org/2000/svg" xmlns:xlink="http://www.w3.org/1999/xlink" width="24" height="24" viewBox="0 0 24 24">
    <defs>
        <path id="prefix__a" d="M17 12h2V8H5v4h2v-2h2v2h6v-2h2v2zm0 1.974V16h-2v-2.026H9V16H7v-2.026H5V18h14v-4.026h-2zM8 6V4a1 1 0 011-1h6a1 1 0 011 1v2h4a1 1 0 011 1v12a1 1 0 01-1 1H4a1 1 0 01-1-1V7a1 1 0 011-1h4zm2 0h4V5h-4v1z"/>
    </defs>
    <g fill="none" fill-rule="evenodd">
        <mask id="prefix__b" fill="#000">
            <use xlink:href="#prefix__a"/>
        </mask>
        <use fill="#000" xlink:href="#prefix__a"/>
        <g fill="#000" mask="url(#prefix__b)">
            <path d="M0 0H24V24H0z"/>
        </g>
    </g>
</svg>
