<svg xmlns="http://www.w3.org/2000/svg" xmlns:xlink="http://www.w3.org/1999/xlink" width="24" height="24" viewBox="0 0 24 24">
    <defs>
        <path id="prefix__a" d="M9 3h12v18H9V3zm2 2v14h8V5h-8zM8 8H5v11h3v2H3V6h5v2zm4-1h2v2h-2V7zm0 3h2v2h-2v-2zm-6 0h2v2H6v-2zm6 3h2v2h-2v-2zm2 3h2v3h-2v-3zm-8-3h2v2H6v-2zm10-6h2v2h-2V7zm0 3h2v2h-2v-2zm0 3h2v2h-2v-2z"/>
    </defs>
    <g fill="none" fill-rule="evenodd">
        <mask id="prefix__b" fill="#000">
            <use xlink:href="#prefix__a"/>
        </mask>
        <use fill="#000" xlink:href="#prefix__a"/>
        <g fill="#000" mask="url(#prefix__b)">
            <path d="M0 0H24V24H0z"/>
        </g>
    </g>
</svg>
